<?xml version="1.0" encoding="UTF-8"?>
<svg id="Ebene_1" xmlns="http://www.w3.org/2000/svg" version="1.1" viewBox="0 0 24 24">
  <!-- Generator: Adobe Illustrator 29.0.0, SVG Export Plug-In . SVG Version: 2.1.0 Build 186)  -->
  <defs>
    <style>
      .st0 {
        fill: none;
        stroke: #000;
        stroke-miterlimit: 10;
      }

      .st1 {
        fill: #1f1f1f;
      }
    </style>
  </defs>
  <path class="st1" d="M8.5,6c-.6,0-1-.2-1.4-.6s-.6-.9-.6-1.4.2-1,.6-1.4.9-.6,1.4-.6,1,.2,1.4.6.6.9.6,1.4-.2,1-.6,1.4-.9.6-1.4.6ZM14,20h-6.5c-.6,0-1.1-.2-1.5-.6-.5-.4-.7-.9-.9-1.4L3,7h2.1l2.2,11h6.8v2ZM19.5,22l-2.9-5h-7c-.5,0-.9-.1-1.3-.4s-.6-.7-.7-1.2l-1.1-5.4c-.2-.8,0-1.5.6-2.1s1.2-.9,2-.9,1.1.2,1.6.5.8.8.9,1.4l1.1,5.1h3.3c.4,0,.7,0,1,.3s.5.4.7.7l3.5,6-1.8,1Z"/>
  <line class="st0" y1="24" x2="24"/>
</svg>