<?xml version="1.0" encoding="UTF-8"?>
<svg id="Ebene_1" xmlns="http://www.w3.org/2000/svg" version="1.1" viewBox="0 0 24 24">
  <!-- Generator: Adobe Illustrator 29.0.0, SVG Export Plug-In . SVG Version: 2.1.0 Build 186)  -->
  <defs>
    <style>
      .st0 {
        fill: none;
        stroke: #000;
        stroke-miterlimit: 10;
      }

      .st1 {
        fill: #1f1f1f;
      }
    </style>
  </defs>
  <path class="st1" d="M5,22c-.6,0-1-.2-1.4-.6-.4-.4-.6-.9-.6-1.4V6c0-.6.2-1,.6-1.4.4-.4.9-.6,1.4-.6h1V2h2v2h8V2h2v2h1c.6,0,1,.2,1.4.6s.6.9.6,1.4v5h-2v-1H5v10h7v2h-7ZM5,8h14v-2H5v2ZM5,8v-2,2ZM14,22v-3.1l5.5-5.5c.2-.2.3-.3.5-.3s.4-.1.6-.1.4,0,.6.1.4.2.5.3l.9.9c.1.2.2.3.3.5s.1.4.1.6,0,.4-.1.6-.2.4-.3.5l-5.5,5.5h-3.1ZM21.5,15.4l-.9-.9.9.9ZM15.5,20.5h1l3-3.1-.5-.5-.5-.5-3.1,3v1ZM19,17l-.5-.5.9.9-.5-.5Z"/>
  <line class="st0" y1="24" x2="24"/>
</svg>